<svg xmlns="http://www.w3.org/2000/svg" xmlns:xlink="http://www.w3.org/1999/xlink" id="Capa_1" x="0px" y="0px" viewBox="0 0 350 100" style="enable-background:new 0 0 350 100;" xml:space="preserve"><style type="text/css">	.st0{fill:url(#SVGID_1_);}	.st1{fill:#FFFFFF;}	.st2{fill:#111111;}</style><g>	<g>		<g>							<linearGradient id="SVGID_1_" gradientUnits="userSpaceOnUse" x1="16.29" y1="52" x2="75.11" y2="52" gradientTransform="matrix(1 0 0 -1 0 102)">				<stop offset="0" style="stop-color:#F29569"></stop>				<stop offset="0.266" style="stop-color:#F18C68"></stop>				<stop offset="0.6982" style="stop-color:#EE7467"></stop>				<stop offset="1" style="stop-color:#EB5F65"></stop>			</linearGradient>			<path class="st0" d="M64.7,81.6c-15.2,0-22.8-4.9-38.1,5.9C22.5,62.8,20.4,52.7,16.3,25c23.5,0,35.3-12.5,58.8-12.5    C71,40.1,68.9,54,64.7,81.6z"></path>		</g>		<path class="st1" d="M27.7,52.4c0-10,7.3-17.3,17.1-17.3c8.8,0,15,5.4,16.5,13.5h-7.7c-1.4-3.9-4.5-6.3-8.7-6.3   c-5.3,0-9.2,3.9-9.2,10.1c0,6.1,4,10.1,9.2,10.1c4.6,0,7.6-2.5,8.7-6.8h7.8C60,64,53.8,69.7,45.1,69.7   C34.9,69.7,27.7,62.5,27.7,52.4z"></path>	</g>	<g>		<g>			<path class="st2" d="M100.6,44.8V69h-5.1l-1.3-2.8c-1.9,2.3-4.8,3.6-8.1,3.6c-5.7,0-9.3-3.6-9.3-10.6V44.8h7.4v13.1    c0,3.5,1.7,5.2,4.1,5.2c2.7,0,4.9-2.1,4.9-6.5V44.8H100.6z"></path>			<path class="st2" d="M104.4,61.5h7.6c0.3,1.6,1.4,2.5,3.7,2.5c2,0,2.8-0.8,2.8-1.9c0-1.4-1.8-1.8-4.6-2.5c-3.9-1-8.9-2.2-8.9-7.7    c0-4.3,3.6-7.8,10.1-7.8c6.8,0,10.1,3.5,10.4,7.9H118c-0.2-1.4-1.1-2.2-2.9-2.2c-1.8,0-2.6,0.8-2.6,1.8c0,1.4,1.8,1.8,4.5,2.4    c3.8,0.8,9,2.1,9,7.9c0,4.4-3.5,7.9-10.4,7.9C108,69.7,104.7,66.3,104.4,61.5z"></path>			<path class="st2" d="M146.7,62.3V69h-4.8c-6.6,0-9.9-3.4-9.9-10.1v-7.6h-4.7v-6.4h5l1.1-6h6.1v6h7.3v6.4h-7.3v7.4    c0,2.5,1.2,3.7,3.7,3.7H146.7z"></path>			<path class="st2" d="M149,56.9c0-7.2,5.6-12.8,13.6-12.8s13.6,5.6,13.6,12.8s-5.6,12.8-13.6,12.8S149,64.1,149,56.9z M168.8,56.9    c0-3.6-2.6-6.2-6.2-6.2c-3.6,0-6.2,2.6-6.2,6.2c0,3.7,2.6,6.2,6.2,6.2C166.3,63.1,168.8,60.5,168.8,56.9z"></path>			<path class="st2" d="M217.8,54v15h-7.4V55.3c0-3.3-1.4-4.6-3.5-4.6c-2.4,0-4.3,1.9-4.3,5.6V69h-7.4V55.3c0-3.3-1.4-4.6-3.5-4.6    c-2.4,0-4.3,1.9-4.3,5.6V69h-7.4V44.8h5.1l1.2,2.6c1.8-2.1,4.5-3.3,7.4-3.3c3.3,0,5.8,1.3,7.3,3.8c1.8-2.4,4.7-3.8,7.8-3.8    C214.3,44.1,217.8,47.6,217.8,54z"></path>			<path class="st2" d="M249.7,56.9c0,7.6-5.2,12.8-12.4,12.8c-2.8,0-5.3-0.8-7.2-2.1v10.5h-7.4V44.8h5.1l1.1,2.4    c2.1-2,5.1-3.1,8.4-3.1C244.5,44.1,249.7,49.3,249.7,56.9z M242.3,56.9c0-3.5-2.6-6.2-6.3-6.2c-3.7,0-6.4,2.7-6.4,6.2    s2.6,6.2,6.4,6.2C239.7,63.1,242.3,60.5,242.3,56.9z"></path>			<path class="st2" d="M275.7,54.2V69h-5.1l-1.1-2.5c-2,2.2-4.6,3.3-8,3.3c-5.6,0-8.9-2.7-8.9-7.4c0-4.7,3.4-7.6,9.7-7.6h6.1v-1    c0-2.4-1.3-3.7-3.7-3.7c-2.2,0-3.5,1.2-3.9,2.8h-7.4c0.9-5.4,5-8.8,11.4-8.8C271.8,44.1,275.7,47.8,275.7,54.2z M268.3,59.9v-0.4    h-5.2c-2.1,0-3,0.8-3,2.1c0,1.3,0.9,2.2,3.1,2.2C266.6,63.8,268.3,62.1,268.3,59.9z"></path>			<path class="st2" d="M279.3,57c0-7.5,5.4-12.9,13.4-12.9c6.9,0,11.9,4.4,13.1,10.3h-7.3c-1-2.3-3-3.6-5.6-3.6c-3.5,0-6,2.5-6,6.2    c0,3.7,2.5,6.2,6.1,6.2c2.5,0,4.4-1.2,5.5-3.7h7.3c-1.2,6-6.1,10.3-13.1,10.3C284.8,69.7,279.3,64.3,279.3,57z"></path>			<path class="st2" d="M319.3,60h-2.4V69h-7.4V34.3h7.4v19.1h2.2l5.4-8.6h8.3l-7.4,11.5l8.2,12.6h-8.7L319.3,60z"></path>		</g>	</g></g></svg>